HIERARCHY
ROOT Hips
{
	OFFSET 0.000000 100.481300 0.000000
	CHANNELS 6 Xposition Yposition Zposition Xrotation Yrotation Zrotation
	JOINT Spine
	{
		OFFSET -0.279200 12.230698 -2.892100
		CHANNELS 3 Xrotation Yrotation Zrotation
		JOINT Spine1
		{
			OFFSET -0.325700 14.269203 -3.374200
			CHANNELS 3 Xrotation Yrotation Zrotation
			JOINT Spine2
			{
				OFFSET -0.372300 16.307602 -0.352600
				CHANNELS 3 Xrotation Yrotation Zrotation
				JOINT Neck
				{
					OFFSET -0.418800 17.814194 8.416900
					CHANNELS 3 Xrotation Yrotation Zrotation
					JOINT Head
					{
						OFFSET 0.000000 7.031097 3.806800
						CHANNELS 3 Xrotation Yrotation Zrotation
						JOINT HeadTop_End
						{
							OFFSET 0.000000 24.646606 12.978600
							CHANNELS 3 Xrotation Yrotation Zrotation
							End Site
							{
								OFFSET 0.000000 27.854965 0.000000
							}
						}
					}
				}
				JOINT LeftShoulder
				{
					OFFSET 16.952999 14.495407 -7.737500
					CHANNELS 3 Xrotation Yrotation Zrotation
					JOINT LeftArm
					{
						OFFSET 9.308998 -2.777710 0.208600
						CHANNELS 3 Xrotation Yrotation Zrotation
						JOINT LeftForeArm
						{
							OFFSET 29.972298 0.000000 0.000000
							CHANNELS 3 Xrotation Yrotation Zrotation
							JOINT LeftHand
							{
								OFFSET 26.026505 0.000000 0.000000
								CHANNELS 3 Xrotation Yrotation Zrotation
								JOINT LeftHandThumb1
								{
									OFFSET 12.240501 -7.147949 9.207150
									CHANNELS 3 Xrotation Yrotation Zrotation
									JOINT LeftHandThumb2
									{
										OFFSET 4.138618 -2.389435 2.389433
										CHANNELS 3 Xrotation Yrotation Zrotation
										JOINT LeftHandThumb3
										{
											OFFSET 2.726913 -1.574387 1.574386
											CHANNELS 3 Xrotation Yrotation Zrotation
											JOINT LeftHandThumb4
											{
												OFFSET 3.941010 -2.275345 2.275342
												CHANNELS 3 Xrotation Yrotation Zrotation
												End Site
												{
													OFFSET -0.005798 5.087799 0.009903
												}
											}
										}
									}
								}
								JOINT LeftHandIndex1
								{
									OFFSET 24.424698 -1.985611 5.953459
									CHANNELS 3 Xrotation Yrotation Zrotation
									JOINT LeftHandIndex2
									{
										OFFSET 6.426697 0.000000 0.000000
										CHANNELS 3 Xrotation Yrotation Zrotation
										JOINT LeftHandIndex3
										{
											OFFSET 5.337898 0.000000 0.000000
											CHANNELS 3 Xrotation Yrotation Zrotation
											JOINT LeftHandIndex4
											{
												OFFSET 4.409401 0.000000 0.000000
												CHANNELS 3 Xrotation Yrotation Zrotation
												End Site
												{
													OFFSET 0.000000 4.409363 0.014373
												}
											}
										}
									}
								}
								JOINT LeftHandMiddle1
								{
									OFFSET 23.810104 0.000000 0.000000
									CHANNELS 3 Xrotation Yrotation Zrotation
									JOINT LeftHandMiddle2
									{
										OFFSET 7.176498 0.000000 0.000000
										CHANNELS 3 Xrotation Yrotation Zrotation
										JOINT LeftHandMiddle3
										{
											OFFSET 6.774902 0.000000 0.000000
											CHANNELS 3 Xrotation Yrotation Zrotation
											JOINT LeftHandMiddle4
											{
												OFFSET 5.403328 0.000000 0.000000
												CHANNELS 3 Xrotation Yrotation Zrotation
												End Site
												{
													OFFSET -0.027702 5.403244 0.017414
												}
											}
										}
									}
								}
								JOINT LeftHandRing1
								{
									OFFSET 22.908401 -0.839279 -6.020567
									CHANNELS 3 Xrotation Yrotation Zrotation
									JOINT LeftHandRing2
									{
										OFFSET 6.337502 0.000000 0.000000
										CHANNELS 3 Xrotation Yrotation Zrotation
										JOINT LeftHandRing3
										{
											OFFSET 5.779297 0.000000 0.000000
											CHANNELS 3 Xrotation Yrotation Zrotation
											JOINT LeftHandRing4
											{
												OFFSET 4.965698 0.000000 0.000000
												CHANNELS 3 Xrotation Yrotation Zrotation
												End Site
												{
													OFFSET 0.000000 4.965668 0.016186
												}
											}
										}
									}
								}
								JOINT LeftHandPinky1
								{
									OFFSET 20.037003 -1.530319 -10.950146
									CHANNELS 3 Xrotation Yrotation Zrotation
									JOINT LeftHandPinky2
									{
										OFFSET 5.254700 0.000000 0.000000
										CHANNELS 3 Xrotation Yrotation Zrotation
										JOINT LeftHandPinky3
										{
											OFFSET 4.810204 0.000000 0.000000
											CHANNELS 3 Xrotation Yrotation Zrotation
											JOINT LeftHandPinky4
											{
												OFFSET 3.647202 0.000000 0.000000
												CHANNELS 3 Xrotation Yrotation Zrotation
												End Site
												{
													OFFSET 0.000000 3.647186 0.011889
												}
											}
										}
									}
								}
							}
						}
					}
				}
				JOINT RightShoulder
				{
					OFFSET -15.141001 14.495407 -7.737500
					CHANNELS 3 Xrotation Yrotation Zrotation
					JOINT RightArm
					{
						OFFSET -9.308998 -2.777710 0.208500
						CHANNELS 3 Xrotation Yrotation Zrotation
						JOINT RightForeArm
						{
							OFFSET -29.972300 0.000000 0.000000
							CHANNELS 3 Xrotation Yrotation Zrotation
							JOINT RightHand
							{
								OFFSET -26.026505 0.000000 0.000000
								CHANNELS 3 Xrotation Yrotation Zrotation
								JOINT RightHandThumb1
								{
									OFFSET -12.240601 -7.148026 9.207092
									CHANNELS 3 Xrotation Yrotation Zrotation
									JOINT RightHandThumb2
									{
										OFFSET -4.138618 -2.389435 2.389433
										CHANNELS 3 Xrotation Yrotation Zrotation
										JOINT RightHandThumb3
										{
											OFFSET -2.726974 -1.574417 1.574421
											CHANNELS 3 Xrotation Yrotation Zrotation
											JOINT RightHandThumb4
											{
												OFFSET -3.941010 -2.275345 2.275343
												CHANNELS 3 Xrotation Yrotation Zrotation
												End Site
												{
													OFFSET 0.005814 5.087799 0.009927
												}
											}
										}
									}
								}
								JOINT RightHandIndex1
								{
									OFFSET -24.424698 -1.985657 5.953444
									CHANNELS 3 Xrotation Yrotation Zrotation
									JOINT RightHandIndex2
									{
										OFFSET -6.426697 0.000000 0.000000
										CHANNELS 3 Xrotation Yrotation Zrotation
										JOINT RightHandIndex3
										{
											OFFSET -5.337898 0.000000 0.000000
											CHANNELS 3 Xrotation Yrotation Zrotation
											JOINT RightHandIndex4
											{
												OFFSET -4.409401 0.000000 0.000000
												CHANNELS 3 Xrotation Yrotation Zrotation
												End Site
												{
													OFFSET 0.000000 4.409363 0.014408
												}
											}
										}
									}
								}
								JOINT RightHandMiddle1
								{
									OFFSET -23.810097 0.000000 0.000000
									CHANNELS 3 Xrotation Yrotation Zrotation
									JOINT RightHandMiddle2
									{
										OFFSET -7.176498 0.000000 0.000000
										CHANNELS 3 Xrotation Yrotation Zrotation
										JOINT RightHandMiddle3
										{
											OFFSET -6.774902 0.000000 0.000000
											CHANNELS 3 Xrotation Yrotation Zrotation
											JOINT RightHandMiddle4
											{
												OFFSET -5.403328 0.000000 0.000000
												CHANNELS 3 Xrotation Yrotation Zrotation
												End Site
												{
													OFFSET 0.027702 5.403244 0.017457
												}
											}
										}
									}
								}
								JOINT RightHandRing1
								{
									OFFSET -22.908302 -0.839325 -6.020576
									CHANNELS 3 Xrotation Yrotation Zrotation
									JOINT RightHandRing2
									{
										OFFSET -6.337502 0.000000 0.000000
										CHANNELS 3 Xrotation Yrotation Zrotation
										JOINT RightHandRing3
										{
											OFFSET -5.779297 0.000000 0.000000
											CHANNELS 3 Xrotation Yrotation Zrotation
											JOINT RightHandRing4
											{
												OFFSET -4.965698 0.000000 0.000000
												CHANNELS 3 Xrotation Yrotation Zrotation
												End Site
												{
													OFFSET 0.000000 4.965668 0.016226
												}
											}
										}
									}
								}
								JOINT RightHandPinky1
								{
									OFFSET -20.037003 -1.530334 -10.950259
									CHANNELS 3 Xrotation Yrotation Zrotation
									JOINT RightHandPinky2
									{
										OFFSET -5.254700 0.000000 0.000000
										CHANNELS 3 Xrotation Yrotation Zrotation
										JOINT RightHandPinky3
										{
											OFFSET -4.810204 0.000000 0.000000
											CHANNELS 3 Xrotation Yrotation Zrotation
											JOINT RightHandPinky4
											{
												OFFSET -3.647202 0.000000 0.000000
												CHANNELS 3 Xrotation Yrotation Zrotation
												End Site
												{
													OFFSET 0.000000 3.647186 0.011917
												}
											}
										}
									}
								}
							}
						}
					}
				}
			}
		}
	}
	JOINT LeftUpLeg
	{
		OFFSET 15.427100 -6.655098 0.678600
		CHANNELS 3 Xrotation Yrotation Zrotation
		JOINT LeftLeg
		{
			OFFSET 4.081073 -39.591068 13.024000
			CHANNELS 3 Xrotation Yrotation Zrotation
			JOINT LeftFoot
			{
				OFFSET -4.081074 -37.707932 -15.979700
				CHANNELS 3 Xrotation Yrotation Zrotation
				JOINT LeftToeBase
				{
					OFFSET 5.346399 -15.068900 20.645000
					CHANNELS 3 Xrotation Yrotation Zrotation
					JOINT LeftToe_End
					{
						OFFSET 2.754700 0.931300 11.300900
						CHANNELS 3 Xrotation Yrotation Zrotation
						End Site
						{
							OFFSET 0.000000 11.669021 0.000000
						}
					}
				}
			}
		}
	}
	JOINT RightUpLeg
	{
		OFFSET -15.569500 -6.655098 0.678600
		CHANNELS 3 Xrotation Yrotation Zrotation
		JOINT RightLeg
		{
			OFFSET -4.081825 -39.591045 13.023800
			CHANNELS 3 Xrotation Yrotation Zrotation
			JOINT RightFoot
			{
				OFFSET 4.081824 -37.707954 -15.979600
				CHANNELS 3 Xrotation Yrotation Zrotation
				JOINT RightToeBase
				{
					OFFSET -5.346400 -15.068900 20.645000
					CHANNELS 3 Xrotation Yrotation Zrotation
					JOINT RightToe_End
					{
						OFFSET -2.754700 0.931300 11.300900
						CHANNELS 3 Xrotation Yrotation Zrotation
						End Site
						{
							OFFSET 0.000000 11.669021 0.000000
						}
					}
				}
			}
		}
	}
}
MOTION
Frames: 4
Frame Time: 0.033333
0.491234 85.097816 1.187557 17.429475 -3.281125 0.087161 14.913161 -1.559612 0.383733 5.346280 -0.845700 -1.559633 5.141039 -0.428916 -0.173902 -8.304050 0.965535 1.844257 -26.440156 5.059197 0.652090 -0.000000 0.000000 0.000000 -18.185059 -16.684735 -4.143145 -14.299590 5.321651 -58.617271 0.000002 -50.169638 0.000004 13.748613 -26.697314 34.897014 11.187903 5.997090 -10.405208 5.363080 8.351971 0.904208 -5.734083 10.813590 15.939377 -0.000004 -0.000000 0.000003 0.153511 -1.751668 -23.178197 0.809110 2.972630 -30.446531 0.886301 3.100024 -31.903882 0.000001 0.000001 0.000002 0.494824 4.564846 -22.398029 0.931162 3.170838 -32.723638 0.559414 2.500193 -25.219770 -0.000001 0.000003 0.000002 0.700942 5.019834 -28.509042 0.453620 2.262251 -22.674512 1.672869 4.099663 -44.381312 -0.000001 0.000002 0.000001 0.465075 8.292830 -13.856691 0.624507 2.633855 -26.672959 2.026718 4.431529 -49.135951 0.000002 -0.000000 -0.000001 -23.769987 22.742590 4.874672 -5.448437 5.986788 54.374982 0.000001 52.736024 -0.000023 3.172472 25.718678 -41.552706 -1.237016 9.918021 5.832134 6.896123 -18.922470 -2.478607 -4.452428 -14.082280 -16.510183 0.000002 -0.000000 -0.000001 0.710421 3.726556 13.785591 0.253607 -1.517365 18.976137 0.289154 -1.617026 20.275715 0.000001 0.000001 -0.000000 0.187457 -3.413292 14.033676 0.448855 -1.996598 25.337241 0.480594 -2.062274 26.233703 -0.000002 0.000000 -0.000003 2.581796 -11.039337 17.202958 1.378461 -3.309272 45.218673 0.423387 -1.941941 24.596232 -0.000001 0.000002 -0.000001 2.630064 -23.282681 23.282109 0.574904 -2.243417 28.743850 1.002134 -2.888114 38.265377 0.000001 -0.000003 -0.000001 -41.430691 0.421288 22.225866 32.236010 -4.020572 2.149550 -8.503946 -4.072683 -20.523352 -5.308809 -0.000001 0.000004 -0.000000 0.000000 0.000000 -40.364041 -1.237918 -15.706382 34.494627 -1.855112 -7.494557 -8.543055 -2.749512 22.629839 -3.267369 0.000001 -0.000005 0.000000 0.000000 0.000000 
0.985084 85.001633 1.735136 17.674573 -3.354531 -0.039145 14.852567 -1.377091 0.568653 5.316633 -0.749088 -1.434082 5.111002 -0.334873 -0.054382 -8.458070 1.026005 1.984298 -26.180171 5.845340 0.235018 -0.000000 0.000000 -0.000000 -18.011878 -16.572032 -3.922706 -12.460347 6.108584 -58.689534 0.000004 -47.550831 -0.000004 8.321893 -25.049353 29.924264 10.409041 3.774669 -9.914369 5.363115 8.352103 0.904230 -5.903876 9.434374 15.610399 -0.000001 0.000001 0.000002 0.153582 -1.751497 -23.178390 0.742806 2.857013 -29.143167 0.816000 2.984267 -30.578897 0.000001 -0.000001 -0.000002 0.517988 4.620957 -22.999626 0.892529 3.109994 -32.018848 0.562729 2.507272 -25.296200 -0.000002 0.000002 -0.000001 0.847608 5.285282 -29.515665 0.434456 2.215839 -22.183913 1.562636 3.984216 -42.817626 -0.000001 0.000002 0.000000 0.290687 8.461075 -16.001543 0.598017 2.580496 -26.090964 1.760665 4.187285 -45.596352 0.000001 0.000001 0.000001 -23.503922 22.725296 4.436280 -3.100464 5.209728 54.276102 -0.000008 51.589464 -0.000004 -6.574293 26.968493 -38.872037 -0.986824 10.271855 6.779523 6.896151 -18.922752 -2.478649 -4.452445 -14.082265 -16.510183 0.000000 0.000003 0.000002 0.710385 3.726751 13.786114 0.253633 -1.517444 18.976902 0.289183 -1.617059 20.276286 0.000002 0.000004 0.000001 0.211185 -3.505219 14.567468 0.453677 -2.006729 25.475187 0.483640 -2.068463 26.318414 0.000000 -0.000001 -0.000000 2.755431 -11.077043 18.343976 1.285424 -3.214412 43.583495 0.395606 -1.880119 23.763343 0.000001 -0.000002 -0.000002 2.534804 -23.408694 23.710565 0.538241 -2.175293 27.792933 0.918751 -2.779269 36.578737 -0.000000 0.000001 0.000004 -41.587605 0.395382 22.076898 33.019399 -3.958563 2.135256 -9.327781 -3.971872 -20.185021 -5.308933 -0.000001 -0.000000 0.000000 -0.000000 0.000000 -40.415558 -1.146290 -16.023279 35.121997 -1.696999 -7.444323 -8.421594 -2.982081 22.551094 -4.520424 -0.000011 0.000005 -0.000000 0.000001 0.000000 
1.557667 85.269615 2.493450 17.826637 -3.168879 -0.083288 14.821131 -1.189861 0.727019 5.303921 -0.633381 -1.312638 5.097745 -0.221879 0.061144 -8.590139 1.089967 2.154108 -26.570004 6.606311 0.059952 0.000000 -0.000000 -0.000000 -17.897416 -16.315546 -3.898423 -10.272634 7.658826 -58.974094 -0.000022 -44.902698 -0.000049 2.594120 -21.917403 24.601870 9.616895 1.501947 -9.415102 5.363083 8.351865 0.904211 -6.095561 8.002478 15.261781 0.000002 0.000002 0.000002 0.153447 -1.751837 -23.178061 0.677926 2.737479 -27.813203 0.748604 2.867343 -29.259120 -0.000005 0.000002 -0.000000 0.545457 4.685386 -23.692683 0.856876 3.052308 -31.355486 0.569615 2.521772 -25.453175 -0.000001 0.000001 -0.000001 1.003653 5.548055 -30.635468 0.417693 2.174294 -21.745960 1.455110 3.865210 -41.246802 -0.000000 -0.000001 -0.000000 0.101371 8.626222 -18.321837 0.574190 2.531356 -25.556795 1.502501 3.918480 -41.944929 -0.000001 0.000001 0.000000 -23.231350 22.590043 4.009095 -0.138440 2.773548 54.774781 0.000015 50.473288 -0.000005 -15.149457 27.981145 -35.891087 -0.678012 10.618199 7.787818 6.896084 -18.922240 -2.478583 -4.452424 -14.082280 -16.510205 0.000004 0.000002 -0.000000 0.710327 3.727006 13.785132 0.253588 -1.517313 18.975410 0.289145 -1.616986 20.275176 0.000003 -0.000003 -0.000001 0.239072 -3.606482 15.209417 0.464212 -2.028710 25.774658 0.490274 -2.081785 26.501260 -0.000001 -0.000002 -0.000003 2.949993 -11.110769 19.628471 1.198756 -3.120947 42.015007 0.370269 -1.821530 22.979055 0.000001 0.000001 0.000002 2.436338 -23.547897 24.242329 0.505579 -2.112183 26.919589 0.838738 -2.668208 34.895153 0.000002 -0.000001 -0.000001 -41.242953 0.719266 21.556212 33.027906 -4.031420 2.144166 -9.900783 -3.967857 -19.622491 -5.308714 0.000000 -0.000001 0.000000 0.000000 0.000000 -40.313648 -1.027272 -16.539218 35.520542 -1.675453 -7.415475 -7.507458 -3.060646 22.343046 -7.118968 0.000000 -0.000000 -0.000000 -0.000001 0.000000 
2.205205 85.897827 3.459419 17.855735 -2.750251 0.046084 14.813999 -1.046700 0.806517 5.298976 -0.538104 -1.252535 5.092426 -0.130188 0.115879 -8.639995 1.203325 2.364206 -27.824570 7.589411 0.194283 0.000001 -0.000000 -0.000000 -17.824722 -15.881911 -4.034269 -7.843005 10.063876 -59.410147 0.000017 -42.295468 0.000032 -2.940907 -18.282856 20.173239 8.811473 -0.808790 -8.919695 5.363024 8.351478 0.904163 -6.306804 6.530609 14.893945 -0.000004 0.000001 -0.000000 0.153195 -1.752411 -23.177547 0.614856 2.614599 -26.462690 0.684151 2.749293 -27.943680 0.000001 0.000002 0.000001 0.576631 4.756075 -24.457169 0.823593 2.997090 -30.724605 0.579339 2.542073 -25.673124 0.000004 0.000002 0.000002 1.169541 5.806865 -31.843954 0.402770 2.136550 -21.349380 1.350538 3.742861 -39.670654 0.000001 0.000000 0.000000 -0.100147 8.799516 -20.778947 0.552462 2.485423 -25.060213 1.256484 3.626707 -38.207221 -0.000001 0.000001 0.000001 -22.970317 22.266340 3.657409 3.796526 -0.916226 55.851126 0.000017 49.450334 -0.000036 -22.531771 28.678916 -33.605675 -0.322045 10.961256 8.841035 6.896004 -18.921478 -2.478538 -4.452433 -14.082258 -16.510177 0.000002 0.000001 -0.000001 0.710247 3.727341 13.783714 0.253524 -1.517158 18.973224 0.289090 -1.616850 20.273557 0.000001 -0.000002 0.000001 0.271056 -3.714789 15.936232 0.479407 -2.059866 26.200688 0.499764 -2.100670 26.760977 -0.000000 -0.000001 -0.000003 3.161157 -11.140026 21.025243 1.117432 -3.028402 40.499101 0.346926 -1.765486 22.233077 0.000001 0.000002 -0.000001 2.337127 -23.700485 24.855268 0.476050 -2.053052 26.107179 0.762143 -2.555007 33.214339 -0.000001 0.000000 -0.000002 -40.295838 1.427252 20.595426 32.204472 -4.192375 2.179533 -10.207877 -4.065188 -18.866145 -5.308378 0.000001 0.000004 0.000000 0.000000 0.000000 -39.744096 -0.944420 -17.342834 35.436572 -1.765277 -7.415821 -6.120088 -3.072147 22.162654 -10.455341 -0.000000 0.000004 -0.000000 0.000000 0.000000 
